# Blender 5.0.0
# www.blender.org
mtllib sparkle.mtl
o Cube
v -0.200000 0.200000 0.200000
v 0.200000 -0.200000 -0.200000
v 0.200000 -0.200000 0.200000
v -0.200000 -0.200000 0.200000
v -0.200000 -0.200000 -0.200000
v 0.200000 -0.200000 0.000000
v 0.000000 -0.200000 0.200000
v -0.200000 -0.200000 0.000000
v -0.000000 -0.200000 -0.200000
v 0.000000 -0.600000 0.000000
v 0.200000 -0.200000 0.100000
v -0.100000 -0.200000 0.200000
v -0.200000 -0.200000 -0.100000
v 0.100000 -0.200000 -0.200000
v 0.200000 -0.200000 -0.100000
v 0.100000 -0.200000 0.200000
v -0.200000 -0.200000 0.100000
v -0.100000 -0.200000 -0.200000
v 0.000000 -0.400000 -0.100000
v 0.000000 -0.400000 0.100000
v -0.100000 -0.400000 0.000000
v 0.100000 -0.400000 0.000000
v 0.100000 -0.400000 0.100000
v -0.100000 -0.400000 0.100000
v -0.100000 -0.400000 -0.100000
v 0.100000 -0.400000 -0.100000
v -0.200000 0.000000 0.200000
v -0.200000 0.000000 -0.200000
v -0.600000 -0.000000 0.000000
v -0.200000 0.100000 0.200000
v -0.200000 -0.100000 -0.200000
v -0.200000 -0.100000 0.200000
v -0.200000 0.200000 0.100000
v -0.200000 0.100000 -0.200000
v -0.400000 0.000000 -0.100000
v -0.400000 0.000000 0.100000
v -0.400000 0.100000 0.000000
v -0.400000 -0.100000 0.000000
v -0.400000 -0.100000 0.100000
v -0.400000 0.100000 0.100000
v -0.400000 0.100000 -0.100000
v -0.400000 -0.100000 -0.100000
v 0.200000 0.000000 0.200000
v 0.200000 0.100000 -0.200000
v 0.000000 -0.000000 0.600000
v -0.000000 0.200000 0.200000
v 0.200000 0.100000 0.200000
v 0.200000 0.000000 -0.200000
v -0.000000 0.200000 -0.200000
v 0.200000 0.200000 0.200000
v -0.000000 -0.000000 -0.600000
v -0.200000 0.200000 -0.200000
v 0.100000 0.200000 -0.200000
v 0.200000 -0.100000 -0.200000
v 0.200000 -0.100000 0.200000
v 0.100000 0.000000 -0.400000
v -0.100000 0.000000 -0.400000
v -0.000000 0.100000 -0.400000
v -0.000000 -0.100000 -0.400000
v -0.100000 -0.100000 -0.400000
v -0.100000 0.100000 -0.400000
v 0.100000 0.100000 -0.400000
v 0.100000 -0.100000 -0.400000
v 0.000000 0.600000 0.000000
v 0.100000 0.200000 0.200000
v -0.200000 0.200000 -0.000000
v 0.200000 0.200000 -0.000000
v -0.100000 0.200000 -0.200000
v 0.600000 -0.000000 -0.000000
v 0.200000 0.200000 0.100000
v 0.200000 0.200000 -0.100000
v 0.400000 0.000000 0.100000
v 0.400000 0.000000 -0.100000
v 0.400000 0.100000 -0.000000
v 0.400000 -0.100000 -0.000000
v 0.400000 -0.100000 -0.100000
v 0.400000 0.100000 -0.100000
v 0.400000 0.100000 0.100000
v 0.400000 -0.100000 0.100000
v -0.100000 0.200000 0.200000
v 0.200000 0.200000 -0.200000
v -0.100000 0.000000 0.400000
v 0.100000 0.000000 0.400000
v 0.000000 0.100000 0.400000
v 0.000000 -0.100000 0.400000
v 0.100000 -0.100000 0.400000
v 0.100000 0.100000 0.400000
v -0.100000 0.100000 0.400000
v -0.100000 -0.100000 0.400000
v -0.200000 0.200000 -0.100000
v 0.000000 0.400000 0.100000
v 0.000000 0.400000 -0.100000
v -0.100000 0.400000 0.000000
v 0.100000 0.400000 0.000000
v 0.100000 0.400000 -0.100000
v -0.100000 0.400000 -0.100000
v -0.100000 0.400000 0.100000
v 0.100000 0.400000 0.100000
vn -0.4472 -0.8944 -0.0000
vn -0.4472 -0.0000 -0.8944
vn -0.3333 -0.6667 -0.6667
vn -1.0000 -0.0000 -0.0000
vn -0.3333 -0.6667 0.6667
vn 0.6667 -0.3333 -0.6667
vn -0.0000 -0.4472 -0.8944
vn -0.0000 -1.0000 -0.0000
vn 0.8944 -0.4472 -0.0000
vn 0.6667 -0.3333 0.6667
vn -0.0000 -0.4472 0.8944
vn -0.8944 -0.4472 -0.0000
vn -0.6667 -0.3333 -0.6667
vn -0.6667 -0.3333 0.6667
vn -0.4472 -0.0000 0.8944
vn -0.4472 0.8944 -0.0000
vn -0.3333 0.6667 -0.6667
vn -0.3333 0.6667 0.6667
vn -0.0000 -0.8944 -0.4472
vn 0.8944 -0.0000 -0.4472
vn 0.6667 -0.6667 -0.3333
vn -0.0000 -0.0000 -1.0000
vn -0.6667 -0.6667 -0.3333
vn -0.8944 -0.0000 -0.4472
vn -0.0000 0.8944 -0.4472
vn 0.6667 0.6667 -0.3333
vn -0.6667 0.6667 -0.3333
vn 0.4472 -0.8944 -0.0000
vn 0.4472 -0.0000 0.8944
vn 0.3333 -0.6667 0.6667
vn 1.0000 -0.0000 -0.0000
vn 0.3333 -0.6667 -0.6667
vn 0.4472 -0.0000 -0.8944
vn 0.4472 0.8944 -0.0000
vn 0.3333 0.6667 0.6667
vn 0.3333 0.6667 -0.6667
vn -0.0000 -0.8944 0.4472
vn -0.8944 -0.0000 0.4472
vn -0.6667 -0.6667 0.3333
vn -0.0000 -0.0000 1.0000
vn 0.6667 -0.6667 0.3333
vn 0.8944 -0.0000 0.4472
vn -0.0000 0.8944 0.4472
vn -0.6667 0.6667 0.3333
vn 0.6667 0.6667 0.3333
vn 0.6667 0.3333 0.6667
vn -0.0000 0.4472 0.8944
vn -0.0000 1.0000 -0.0000
vn 0.8944 0.4472 -0.0000
vn 0.6667 0.3333 -0.6667
vn -0.0000 0.4472 -0.8944
vn -0.8944 0.4472 -0.0000
vn -0.6667 0.3333 0.6667
vn -0.6667 0.3333 -0.6667
vt 0.812500 0.562500
vt 0.875000 0.562500
vt 0.875000 0.625000
vt 0.812500 0.625000
vt 0.687500 0.687500
vt 0.750000 0.687500
vt 0.750000 0.750000
vt 0.687500 0.750000
vt 0.875000 0.687500
vt 0.812500 0.750000
vt 0.812500 0.687500
vt 0.750000 0.562500
vt 0.687500 0.625000
vt 0.687500 0.562500
vt 0.750000 0.625000
vt 0.750000 0.500000
vt 0.812500 0.500000
vt 0.625000 0.562500
vt 0.625000 0.625000
vt 0.687500 0.500000
vt 0.625000 0.500000
vt 0.625000 0.687500
vt 0.625000 0.750000
vt 0.875000 0.750000
vt 0.875000 0.500000
s 0
usemtl Material.001
f 39/1/1 38/4/1 8/3/1 17/2/1
f 41/5/2 34/8/2 28/7/2 35/6/2
f 13/9/3 42/11/3 31/10/3
f 36/12/4 40/14/4 37/13/4
f 36/12/5 29/15/5 38/4/5
f 15/9/6 26/11/6 14/10/6
f 25/5/7 18/8/7 9/7/7 19/6/7
f 20/12/8 24/14/8 21/13/8
f 23/1/9 22/4/9 6/3/9 11/2/9
f 20/12/10 10/15/10 22/4/10
f 7/16/11 20/12/11 23/1/11 16/17/11
f 16/17/10 23/1/10 11/2/10
f 17/18/12 8/19/12 21/13/12 24/14/12
f 12/20/8 4/21/8 17/18/8
f 12/20/11 24/14/11 20/12/11 7/16/11
f 13/22/8 5/23/8 18/8/8
f 8/19/12 13/22/12 25/5/12 21/13/12
f 21/13/8 25/5/8 19/6/8
f 19/6/7 9/7/7 14/10/7 26/11/7
f 22/4/6 10/15/6 19/6/6
f 22/4/9 26/11/9 15/9/9 6/3/9
f 13/22/13 18/8/13 25/5/13
f 12/20/14 17/18/14 24/14/14
f 20/12/14 21/13/14 10/15/14
f 21/13/13 19/6/13 10/15/13
f 22/4/8 19/6/8 26/11/8
f 15/9/8 14/10/8 2/24/8
f 20/12/8 22/4/8 23/1/8
f 16/17/8 11/2/8 3/25/8
f 27/16/15 36/12/15 39/1/15 32/17/15
f 32/17/5 39/1/5 17/2/5
f 33/18/16 66/19/16 37/13/16 40/14/16
f 30/20/4 1/21/4 33/18/4
f 30/20/15 40/14/15 36/12/15 27/16/15
f 90/22/4 52/23/4 34/8/4
f 66/19/16 90/22/16 41/5/16 37/13/16
f 37/13/4 41/5/4 35/6/4
f 35/6/2 28/7/2 31/10/2 42/11/2
f 38/4/3 29/15/3 35/6/3
f 38/4/1 42/11/1 13/9/1 8/3/1
f 90/22/17 34/8/17 41/5/17
f 30/20/18 33/18/18 40/14/18
f 36/12/18 37/13/18 29/15/18
f 37/13/17 35/6/17 29/15/17
f 38/4/4 35/6/4 42/11/4
f 13/9/4 31/10/4 5/24/4
f 36/12/4 38/4/4 39/1/4
f 32/17/4 17/2/4 4/25/4
f 60/1/19 59/4/19 9/3/19 18/2/19
f 62/5/20 44/8/20 48/7/20 56/6/20
f 14/9/21 63/11/21 54/10/21
f 57/12/22 61/14/22 58/13/22
f 57/12/23 51/15/23 59/4/23
f 28/16/24 57/12/24 60/1/24 31/17/24
f 31/17/23 60/1/23 18/2/23
f 68/18/25 49/19/25 58/13/25 61/14/25
f 34/20/22 52/21/22 68/18/22
f 34/20/24 61/14/24 57/12/24 28/16/24
f 53/22/22 81/23/22 44/8/22
f 49/19/25 53/22/25 62/5/25 58/13/25
f 58/13/22 62/5/22 56/6/22
f 56/6/20 48/7/20 54/10/20 63/11/20
f 59/4/21 51/15/21 56/6/21
f 59/4/19 63/11/19 14/9/19 9/3/19
f 53/22/26 44/8/26 62/5/26
f 34/20/27 68/18/27 61/14/27
f 57/12/27 58/13/27 51/15/27
f 58/13/26 56/6/26 51/15/26
f 59/4/22 56/6/22 63/11/22
f 14/9/22 54/10/22 2/24/22
f 57/12/22 59/4/22 60/1/22
f 31/17/22 18/2/22 5/25/22
f 76/1/28 75/4/28 6/3/28 15/2/28
f 78/5/29 47/8/29 43/7/29 72/6/29
f 11/9/30 79/11/30 55/10/30
f 73/12/31 77/14/31 74/13/31
f 73/12/32 69/15/32 75/4/32
f 48/16/33 73/12/33 76/1/33 54/17/33
f 54/17/32 76/1/32 15/2/32
f 71/18/34 67/19/34 74/13/34 77/14/34
f 44/20/31 81/21/31 71/18/31
f 44/20/33 77/14/33 73/12/33 48/16/33
f 70/22/31 50/23/31 47/8/31
f 67/19/34 70/22/34 78/5/34 74/13/34
f 74/13/31 78/5/31 72/6/31
f 72/6/29 43/7/29 55/10/29 79/11/29
f 75/4/30 69/15/30 72/6/30
f 75/4/28 79/11/28 11/9/28 6/3/28
f 70/22/35 47/8/35 78/5/35
f 44/20/36 71/18/36 77/14/36
f 73/12/36 74/13/36 69/15/36
f 74/13/35 72/6/35 69/15/35
f 75/4/31 72/6/31 79/11/31
f 11/9/31 55/10/31 3/24/31
f 73/12/31 75/4/31 76/1/31
f 54/17/31 15/2/31 2/25/31
f 86/1/37 85/4/37 7/3/37 16/2/37
f 88/5/38 30/8/38 27/7/38 82/6/38
f 12/9/39 89/11/39 32/10/39
f 83/12/40 87/14/40 84/13/40
f 83/12/41 45/15/41 85/4/41
f 43/16/42 83/12/42 86/1/42 55/17/42
f 55/17/41 86/1/41 16/2/41
f 65/18/43 46/19/43 84/13/43 87/14/43
f 47/20/40 50/21/40 65/18/40
f 47/20/42 87/14/42 83/12/42 43/16/42
f 80/22/40 1/23/40 30/8/40
f 46/19/43 80/22/43 88/5/43 84/13/43
f 84/13/40 88/5/40 82/6/40
f 82/6/38 27/7/38 32/10/38 89/11/38
f 85/4/39 45/15/39 82/6/39
f 85/4/37 89/11/37 12/9/37 7/3/37
f 80/22/44 30/8/44 88/5/44
f 47/20/45 65/18/45 87/14/45
f 83/12/45 84/13/45 45/15/45
f 84/13/44 82/6/44 45/15/44
f 85/4/40 82/6/40 89/11/40
f 12/9/40 32/10/40 4/24/40
f 83/12/40 85/4/40 86/1/40
f 55/17/40 16/2/40 3/25/40
f 70/9/46 98/11/46 65/10/46
f 97/5/47 80/8/47 46/7/47 91/6/47
f 92/12/48 96/14/48 93/13/48
f 95/1/49 94/4/49 67/3/49 71/2/49
f 92/12/50 64/15/50 94/4/50
f 49/16/51 92/12/51 95/1/51 53/17/51
f 53/17/50 95/1/50 71/2/50
f 90/18/52 66/19/52 93/13/52 96/14/52
f 68/20/48 52/21/48 90/18/48
f 68/20/51 96/14/51 92/12/51 49/16/51
f 33/22/48 1/23/48 80/8/48
f 66/19/52 33/22/52 97/5/52 93/13/52
f 93/13/48 97/5/48 91/6/48
f 91/6/47 46/7/47 65/10/47 98/11/47
f 94/4/46 64/15/46 91/6/46
f 94/4/49 98/11/49 70/9/49 67/3/49
f 33/22/53 80/8/53 97/5/53
f 68/20/54 90/18/54 96/14/54
f 92/12/54 93/13/54 64/15/54
f 93/13/53 91/6/53 64/15/53
f 94/4/48 91/6/48 98/11/48
f 70/9/48 65/10/48 50/24/48
f 92/12/48 94/4/48 95/1/48
f 53/17/48 71/2/48 81/25/48
